<svg xmlns="http://www.w3.org/2000/svg" viewBox="0 0 960 920" font-family="Inter, system-ui, -apple-system, sans-serif">
  <defs>
    <marker id="arr" viewBox="0 0 10 10" refX="9" refY="5" markerWidth="5" markerHeight="5" orient="auto">
      <path d="M 0 1 L 9 5 L 0 9 z" fill="#5a7a64"/>
    </marker>
  </defs>

  <!-- Background -->
  <rect width="960" height="920" fill="#faf9f6" rx="8"/>

  <!-- Title -->
  <text x="480" y="42" text-anchor="middle" font-family="EB Garamond, Georgia, serif" font-size="26" font-weight="600" fill="#243833">Research Program Architecture</text>

  <!-- ===== CULTURAL / REPRESENTATIONAL ===== -->
  <rect x="240" y="68" width="480" height="70" fill="#243833" rx="8"/>
  <text x="480" y="96" text-anchor="middle" font-size="15" font-weight="600" fill="#ffffff" letter-spacing="0.06em">CULTURAL / REPRESENTATIONAL</text>
  <text x="480" y="116" text-anchor="middle" font-size="12" fill="#ffffff" opacity="0.85">(encodes, enforces, naturalizes)</text>
  <text x="480" y="131" text-anchor="middle" font-size="10.5" fill="#ffffff" opacity="0.65">Spans ALL levels simultaneously</text>

  <!-- Arrow: Cultural → Ecological -->
  <line x1="480" y1="138" x2="480" y2="172" stroke="#5a7a64" stroke-width="2" marker-end="url(#arr)"/>

  <!-- ===== V. ECOLOGICAL ===== -->
  <rect x="240" y="178" width="480" height="80" fill="#243833" rx="8"/>
  <text x="480" y="206" text-anchor="middle" font-size="16" font-weight="600" fill="#ffffff" letter-spacing="0.06em">V. ECOLOGICAL</text>
  <text x="480" y="226" text-anchor="middle" font-size="12" fill="#ffffff" opacity="0.9">How do all levels interact as a dynamic system?</text>
  <text x="480" y="244" text-anchor="middle" font-size="10.5" fill="#ffffff" opacity="0.65">Integrates environmental input → regulatory load</text>

  <!-- Arrow: Ecological → feedback label -->
  <line x1="480" y1="258" x2="480" y2="285" stroke="#5a7a64" stroke-width="2" marker-end="url(#arr)"/>
  <rect x="435" y="268" width="90" height="22" fill="#faf9f6" rx="4"/>
  <text x="480" y="283" text-anchor="middle" font-size="11" fill="#5a7a64" font-weight="500">feedback</text>

  <!-- Feedback arrows to I and II -->
  <path d="M 480 295 L 480 312 L 180 312 L 180 328" fill="none" stroke="#5a7a64" stroke-width="1.5" stroke-dasharray="4,3" marker-end="url(#arr)"/>
  <path d="M 480 295 L 480 312 L 780 312 L 780 328" fill="none" stroke="#5a7a64" stroke-width="1.5" stroke-dasharray="4,3" marker-end="url(#arr)"/>

  <!-- ===== I. ARCHITECTURAL ===== -->
  <rect x="60" y="335" width="240" height="90" fill="#faf9f6" rx="8" stroke="#243833" stroke-width="2"/>
  <text x="180" y="362" text-anchor="middle" font-size="15" font-weight="600" fill="#243833" letter-spacing="0.06em">I. ARCHITECTURAL</text>
  <text x="180" y="382" text-anchor="middle" font-size="12" fill="#243833">What are the two architectures?</text>
  <text x="180" y="400" text-anchor="middle" font-size="10.5" fill="#6e6e73">Socially coupled vs. internally</text>
  <text x="180" y="414" text-anchor="middle" font-size="10.5" fill="#6e6e73">mediated cognition</text>

  <!-- ===== II. COMPUTATIONAL ===== -->
  <rect x="660" y="335" width="240" height="90" fill="#faf9f6" rx="8" stroke="#243833" stroke-width="2"/>
  <text x="780" y="362" text-anchor="middle" font-size="15" font-weight="600" fill="#243833" letter-spacing="0.06em">II. COMPUTATIONAL</text>
  <text x="780" y="382" text-anchor="middle" font-size="12" fill="#243833">How do energetic constraints</text>
  <text x="780" y="397" text-anchor="middle" font-size="12" fill="#243833">shape inference?</text>
  <text x="780" y="415" text-anchor="middle" font-size="10.5" fill="#6e6e73">Metabolic gating · precision dynamics</text>

  <!-- Bidirectional: I ↔ II -->
  <line x1="305" y1="365" x2="655" y2="365" stroke="#5a7a64" stroke-width="1.5" marker-end="url(#arr)"/>
  <line x1="655" y1="385" x2="305" y2="385" stroke="#5a7a64" stroke-width="1.5" marker-end="url(#arr)"/>
  <rect x="440" y="352" width="80" height="20" fill="#faf9f6" rx="3"/>
  <text x="480" y="366" text-anchor="middle" font-size="11" fill="#5a7a64" font-style="italic">formalizes</text>
  <rect x="440" y="374" width="80" height="20" fill="#faf9f6" rx="3"/>
  <text x="480" y="388" text-anchor="middle" font-size="11" fill="#5a7a64" font-style="italic">identifies</text>

  <!-- Arrow: I → III -->
  <line x1="180" y1="425" x2="180" y2="478" stroke="#5a7a64" stroke-width="1.5" marker-end="url(#arr)"/>
  <rect x="110" y="442" width="70" height="20" fill="#faf9f6" rx="3"/>
  <text x="145" y="456" text-anchor="middle" font-size="11" fill="#5a7a64" font-style="italic">feeds into</text>

  <!-- Arrow: II → IV -->
  <line x1="780" y1="425" x2="780" y2="478" stroke="#5a7a64" stroke-width="1.5" marker-end="url(#arr)"/>
  <rect x="805" y="442" width="60" height="20" fill="#faf9f6" rx="3"/>
  <text x="835" y="456" text-anchor="middle" font-size="11" fill="#5a7a64" font-style="italic">explains</text>

  <!-- Center label -->
  <rect x="440" y="442" width="80" height="20" fill="#faf9f6" rx="3"/>
  <text x="480" y="456" text-anchor="middle" font-size="11" fill="#5a7a64" font-style="italic">grounds in</text>

  <!-- ===== III. EXPERIENTIAL ===== -->
  <rect x="60" y="485" width="240" height="90" fill="#faf9f6" rx="8" stroke="#243833" stroke-width="2"/>
  <text x="180" y="512" text-anchor="middle" font-size="15" font-weight="600" fill="#243833" letter-spacing="0.06em">III. EXPERIENTIAL</text>
  <text x="180" y="532" text-anchor="middle" font-size="12" fill="#243833">What does sustained mismatch</text>
  <text x="180" y="547" text-anchor="middle" font-size="12" fill="#243833">cost the person?</text>
  <text x="180" y="565" text-anchor="middle" font-size="10.5" fill="#6e6e73">Masking · burnout · structural insolvency</text>

  <!-- ===== IV. MECHANISTIC ===== -->
  <rect x="660" y="485" width="240" height="90" fill="#faf9f6" rx="8" stroke="#243833" stroke-width="2"/>
  <text x="780" y="512" text-anchor="middle" font-size="15" font-weight="600" fill="#243833" letter-spacing="0.06em">IV. MECHANISTIC</text>
  <text x="780" y="532" text-anchor="middle" font-size="12" fill="#243833">What is the specific biological</text>
  <text x="780" y="547" text-anchor="middle" font-size="12" fill="#243833">pathway?</text>
  <text x="780" y="565" text-anchor="middle" font-size="10.5" fill="#6e6e73">Functional Iron Blockade · neuroimmune</text>

  <!-- Bidirectional: III ↔ IV -->
  <line x1="305" y1="515" x2="655" y2="515" stroke="#5a7a64" stroke-width="1.5" marker-end="url(#arr)"/>
  <line x1="655" y1="535" x2="305" y2="535" stroke="#5a7a64" stroke-width="1.5" marker-end="url(#arr)"/>
  <rect x="435" y="502" width="90" height="20" fill="#faf9f6" rx="3"/>
  <text x="480" y="516" text-anchor="middle" font-size="11" fill="#5a7a64" font-style="italic">biological basis</text>
  <rect x="405" y="524" width="150" height="20" fill="#faf9f6" rx="3"/>
  <text x="480" y="538" text-anchor="middle" font-size="10" fill="#5a7a64" font-style="italic">validates cost of lived experience</text>

  <!-- ===== LEGEND ===== -->
  <line x1="300" y1="640" x2="365" y2="640" stroke="#5a7a64" stroke-width="2" marker-end="url(#arr)"/>
  <text x="375" y="644" font-size="12" fill="#6e6e73">Forward progression</text>

  <line x1="540" y1="640" x2="605" y2="640" stroke="#5a7a64" stroke-width="1.5" stroke-dasharray="4,3" marker-end="url(#arr)"/>
  <text x="615" y="644" font-size="12" fill="#6e6e73">Feedback loop</text>

</svg>
